PathFileType	4	(X/Y/Z)	Patient4_TMGait_0pt5_02_left_40.trc.trc
DataRate	CameraRate	NumFrames	NumMarkers	Units	OrigDataRate	OrigDataStartFrame	OrigNumFrames
75.675675675676	75.675675675676	4	33	mm	75.675675675676	18	       141
Frame#	Time	Sacral			L.Shoulder			Chest			R.Shoulder			Neck			R.ASIS			L.ASIS			R.Thigh.Superior			R.Thigh.Lateral			R.Thigh.Inferior			R.Patella			L.Thigh.Superior			L.Thigh.Lateral			L.Thigh.Inferior			L.Patella			L.Shank.Superior			L.Shank.Lateral			L.Shank.Inferior			R.Shank.Superior			R.Shank.Lateral			R.Shank.Inferior			R.Heel			R.Midfoot.Superior			R.Midfoot.Lateral			R.Toe			L.Heel			L.Midfoot.Lateral			L.Midfoot.Superior			L.Toe			L.Elbow			L.Wrist			R.Elbow			R.Wrist			
		X1	Y1	Z1	X2	Y2	Z2	X3	Y3	Z3	X4	Y4	Z4	X5	Y5	Z5	X6	Y6	Z6	X7	Y7	Z7	X8	Y8	Z8	X9	Y9	Z9	X10	Y10	Z10	X11	Y11	Z11	X12	Y12	Z12	X13	Y13	Z13	X14	Y14	Z14	X15	Y15	Z15	X16	Y16	Z16	X17	Y17	Z17	X18	Y18	Z18	X19	Y19	Z19	X20	Y20	Z20	X21	Y21	Z21	X22	Y22	Z22	X23	Y23	Z23	X24	Y24	Z24	X25	Y25	Z25	X26	Y26	Z26	X27	Y27	Z27	X28	Y28	Z28	X29	Y29	Z29	X30	Y30	Z30	X31	Y31	Z31	X32	Y32	Z32	X33	Y33	Z33	

18	51.784642857143	717.381826826279	1012.017243910213	518.008052496791	893.958521595768	1432.566434285900	322.568827433411	1009.354058809333	1357.795426718972	471.752226729804	946.154280150743	1434.464558947946	653.239498518830	909.843596909893	1491.801147656288	473.552359666191	947.423764815977	937.875513285993	616.135055221009	916.094702220503	958.704770842898	343.509501485080	956.639105121272	727.568688866721	585.303606046373	862.833278244939	630.093578118214	650.041455301566	923.216592916493	568.710633841353	565.225276736275	909.025000757855	482.612755032429	569.197472500421	989.850615115123	777.603880969867	378.099061057659	951.205199703910	652.878677326491	294.145739020331	1048.438806199928	592.509787892280	364.045021195574	1078.493662673015	528.385322743458	358.824650675119	1063.419654327422	456.197405487715	345.535896779098	1003.063300789247	326.183652913967	287.265038253971	1087.886141608931	227.073004155846	346.326231830694	874.610770391895	396.538709050815	577.169924574860	796.693866874339	299.034270725871	640.342369448340	826.121661479825	202.053838427566	574.755553699775	678.184645448117	43.293178370584	547.272709643193	850.054774531063	96.408719186182	580.311190268645	762.022886022219	36.712655712867	621.447535460489	970.325432614334	41.993559402563	608.542804079255	1006.770934282331	41.941231316718	377.708626911465	1083.536689595625	52.068232080297	300.921727926630	1149.393320384315	132.839926368586	325.529202239302	1285.121373823272	111.433543355380	304.970015252826	772.545452641379	1096.007588005623	221.310155127497	748.119391207980	837.384823152905	238.504469570916	1089.612482930508	1137.357984216883	774.285308520872	1307.644707971352	1223.808357242136	684.118824322536	
19	51.797857142857	718.288567642807	1010.915820252711	517.363472740411	892.451456686296	1431.836044297942	320.929664374798	1008.932218047129	1357.309644088678	469.330501433560	946.666001305638	1433.896115067354	651.069364743840	909.141328848271	1490.997977641403	471.718395975139	948.837349256335	937.071312504410	614.281009432367	916.213101286211	957.624804928754	341.739555050282	956.712891204557	726.306520968335	583.537408777687	862.526808213156	629.159059193696	648.834416163411	921.897913826753	567.361064958421	563.782332720924	906.904275972168	481.158581894323	567.787473759682	989.998039560713	776.175056127159	375.965042706159	948.934382446730	650.437430856409	294.140156148406	1047.213097288577	590.498778523434	362.453847569715	1076.513100264332	526.366691686757	358.120630986328	1061.686220781767	454.055571001424	345.535636767396	1000.835340119913	323.531351143136	289.435861337198	1086.738318218433	225.210578668698	348.127423449979	871.630859909183	395.290507160185	576.055524011977	792.987862177318	298.670454700084	639.768733893993	820.874285690001	201.338603505455	574.182419550979	671.517354550053	43.245668836551	547.320787175412	843.391547903460	96.322271990860	580.168832972559	755.355956843603	36.636931087262	621.454130830720	963.649944546985	41.976572870633	608.514923174915	1006.241805784340	41.182428912254	382.272871545781	1081.915403493006	50.163922540049	304.385945581817	1148.559396910736	130.370271140761	327.532635203799	1283.652473437642	107.808350963113	305.428676940443	766.733105973811	1097.195823452444	220.555344112176	739.883903681225	838.772120447666	238.798559846304	1095.552639757304	1140.186595844585	770.777232837456	1308.856477921567	1235.292853943856	679.091471246673	
20	51.811071428571	719.367758341920	1009.672218992993	516.431905191979	890.994701513176	1430.944750916406	319.085641899470	1008.518868402214	1356.786429141673	466.790148521563	947.047975718966	1433.263735011552	648.735554664064	908.371205391482	1490.094463094439	469.672562636415	950.435062245695	936.193184450390	612.397812034786	916.709851639274	956.385604365247	339.929591057337	956.977596750882	724.957238734996	581.775193051690	862.345920657930	628.148739667253	647.582302050279	920.764722562021	565.901913290250	562.350327929413	904.943991951253	479.579087382375	566.361016747604	990.774009856181	774.690591718439	373.719593529090	947.015283570624	647.805886622765	294.378486558049	1046.525587260385	588.398530326537	360.897499410024	1074.799645064691	523.891651981247	357.607568645440	1059.808074753161	451.329502066486	345.756428476394	997.577191078810	320.829687242027	291.681435992327	1083.683459778746	222.659709729187	350.037799009133	868.770640297591	393.968450437980	574.924654299694	789.357911854918	298.277558755328	639.172582493108	815.669204964964	200.590030117286	573.612621120423	664.860386734978	43.191461568783	547.376501923858	836.740236325724	96.226146674872	580.024578966480	748.700198995726	36.547760206392	621.456529748044	956.983562685149	41.922250207013	608.501917335380	1002.272757735110	40.620314889980	386.578597606388	1077.004321062826	48.004779370941	307.676887363522	1145.116796808364	126.843956784253	329.713187319974	1279.368132323304	101.900205759904	306.101831085702	761.512290010005	1098.031326113885	219.744954828131	732.576141480771	839.787885900090	238.897271282317	1100.911304986047	1142.753324909540	767.133675366951	1309.611472644854	1245.571889117920	674.150775480132	
21	51.824285714286	720.593095749419	1008.307413091037	515.221346690694	889.616032771170	1429.892203719414	317.037353353815	1008.134682742865	1356.218598872780	464.141282195446	947.315902834076	1432.566788045115	646.255458424541	907.563604820150	1489.099561002238	467.418716464965	952.192254053237	935.235176174228	610.497418396816	917.567778436756	955.009405796696	338.093530353948	957.416037132938	723.524282701326	580.046576537610	862.255294075185	627.075751315645	646.288937699093	919.793463492271	564.349993657536	560.935747649035	903.124879607587	477.882541484777	564.921320085240	992.084572406730	773.103022092759	371.447176315219	945.490750969227	645.075918732624	294.757652879474	1046.282261986374	586.210403275168	359.448751818878	1073.291206451050	521.032652413102	357.322053739540	1057.838697465414	448.148155150490	346.171105714154	993.631813271131	318.096388770047	293.820917757340	1079.159813652931	219.539623468872	351.977421933655	866.004561571891	392.590439972646	573.781092557305	785.784291270874	297.868740525025	638.555533771687	810.496601437942	199.825741220312	573.052519119418	658.213867264246	43.155997689017	547.446514175762	830.105812348716	96.127719067278	579.882189463139	742.059025703216	36.459535389251	621.460409367756	950.330358851915	41.823486107324	608.506920919330	995.568175111053	40.139475024068	390.371082151389	1069.601270786936	45.672396976866	310.642985895743	1139.662217995024	122.505961168691	332.042601695407	1272.973533233404	94.261234683114	307.137414092872	756.944515612386	1098.466585929913	218.855364043774	726.231792019932	840.389819375215	238.784447473701	1105.683720627698	1144.982914526096	763.394429420943	1309.996068096709	1254.613237645782	669.312238978939	
